
<svg id="tool-brightness-contrast" viewBox="0 0 17 17">
	<style type="text/css">
		.st0{fill:none;stroke:#333;stroke-miterlimit:10;}
		.st1{fill:#333;}
	</style>
	<circle class="st0" cx="8.5" cy="8.5" r="5"/>
	<path class="st1" d="M8.5,13.5c2.8,0,5-2.2,5-5s-2.2-5-5-5V13.5z"/>
	<line class="st0" x1="8.5" y1="2.5" x2="8.5" y2="0.6"/>
	<line class="st0" x1="8.5" y1="16.4" x2="8.5" y2="14.5"/>
	<line class="st0" x1="14.5" y1="8.5" x2="16.4" y2="8.5"/>
	<line class="st0" x1="0.6" y1="8.5" x2="2.5" y2="8.5"/>
	<line class="st0" x1="12.7" y1="4.3" x2="14.1" y2="2.9"/>
	<line class="st0" x1="2.9" y1="14.1" x2="4.3" y2="12.7"/>
	<line class="st0" x1="12.7" y1="12.7" x2="14.1" y2="14.1"/>
	<line class="st0" x1="2.9" y1="2.9" x2="4.3" y2="4.3"/>
</svg>

<svg id="tool-levels" viewBox="0 0 17 17">
	<style type="text/css">
		.st0{fill:#333;}
	</style>
	<path class="st0" d="M14.6,9.4C14.5,5.8,13.1,6.1,13,7c-0.1,0.9,0.3,3-1.2,2.6c-1.4-0.4-0.2-7.5-1.4-7.8C9.1,1.6,9.8,9,9.1,8.8
		c-0.7-0.2,0.3-4-0.7-3.9c-1,0.1-0.8,5.7-1.2,5.1c-0.3-0.6,0-1.1-0.6-1.2c-0.4,0.4,0.2,2.2-0.6,1.5C5.6,9.8,6.8,2.4,5.4,3
		C4.3,3.5,5,10,4.2,10C3.4,9.9,4.2,5.1,3.4,5.2S3.1,9.5,2.5,9.5C1.9,9.5,2,6.3,2,5.1s-1-0.6-1,0S1,11,1,11v4h14.9c0,0,0-5.6,0-6.5
		C15.8,9.2,14.7,11.9,14.6,9.4z"/>
</svg>

<svg id="tool-curves" viewBox="0 0 17 17">
	<style type="text/css">
		.st0{fill:none;stroke:#333;stroke-miterlimit:10;}
		.st1{opacity:0.35;fill:none;stroke:#333;stroke-miterlimit:10;}
	</style>
	<rect x="1.5" y="2.6" class="st0" width="13.9" height="11.9"/>
	<line class="st1" x1="8.5" y1="2.5" x2="8.5" y2="14.4"/>
	<line class="st1" x1="15.4" y1="8.6" x2="1.5" y2="8.6"/>
	<path class="st0" d="M1.5,12.5c4.2,0,7-0.5,7-3.9c0-2.8,2.4-3.9,7-3.9"/>
</svg>

<svg id="tool-exposure" viewBox="0 0 17 17">
	<style type="text/css">
		.st0{fill:none;stroke:#333;stroke-miterlimit:10;}
		.st1{fill:#333;}
		.st2{fill:none;stroke:#fff;stroke-miterlimit:10;}
	</style>
	<rect x="1.5" y="2.6" class="st0" width="13.9" height="11.9"/>
	<polygon class="st1" points="1.5,14.5 15.4,14.5 15.4,2.6 "/>
	<line class="st0" x1="5.4" y1="4.6" x2="5.4" y2="8.6"/>
	<line class="st0" x1="7.4" y1="6.6" x2="3.4" y2="6.6"/>
	<line class="st2" x1="13.4" y1="10.5" x2="9.4" y2="10.5"/>
</svg>

<svg id="tool-vibrance" viewBox="0 0 17 17">
	<style type="text/css">
		.st0{fill:none;stroke:#333;stroke-width:1;stroke-linecap:round;}
	</style>
	<rect x="0.5" y="0.5" class="st0" width="16" height="16"/>
</svg>

<svg id="tool-hue-saturation" viewBox="0 0 17 17">
	<style type="text/css">
		.st0{fill:none;stroke:#333;stroke-width:1;stroke-linecap:round;}
	</style>
	<rect x="0.5" y="0.5" class="st0" width="16" height="16"/>
</svg>

<svg id="tool-color-balance" viewBox="0 0 17 17">
	<style type="text/css">
		.st0{fill:none;stroke:#333;stroke-width:1;stroke-linecap:round;}
	</style>
	<rect x="0.5" y="0.5" class="st0" width="16" height="16"/>
</svg>

<svg id="tool-black-white" viewBox="0 0 17 17">
	<style type="text/css">
		.st0{fill:none;stroke:#333;stroke-width:1;stroke-linecap:round;}
	</style>
	<rect x="0.5" y="0.5" class="st0" width="16" height="16"/>
</svg>

<svg id="tool-photo-filter" viewBox="0 0 17 17">
	<style type="text/css">
		.st0{fill:none;stroke:#333;stroke-width:1;stroke-linecap:round;}
	</style>
	<rect x="0.5" y="0.5" class="st0" width="16" height="16"/>
</svg>

<svg id="tool-channel-mixer" viewBox="0 0 17 17">
	<style type="text/css">
		.st0{fill:none;stroke:#333;stroke-width:1;stroke-linecap:round;}
	</style>
	<rect x="0.5" y="0.5" class="st0" width="16" height="16"/>
</svg>

<svg id="tool-color-lookup" viewBox="0 0 17 17">
	<style type="text/css">
		.st0{fill:none;stroke:#333;stroke-width:1;stroke-linecap:round;}
	</style>
	<rect x="0.5" y="0.5" class="st0" width="16" height="16"/>
</svg>

<svg id="tool-invert" viewBox="0 0 17 17">
	<style type="text/css">
		.st0{fill:none;stroke:#333;stroke-width:1;stroke-linecap:round;}
	</style>
	<rect x="0.5" y="0.5" class="st0" width="16" height="16"/>
</svg>

<svg id="tool-posterize" viewBox="0 0 17 17">
	<style type="text/css">
		.st0{fill:none;stroke:#333;stroke-width:1;stroke-linecap:round;}
	</style>
	<rect x="0.5" y="0.5" class="st0" width="16" height="16"/>
</svg>

<svg id="tool-threshold" viewBox="0 0 17 17">
	<style type="text/css">
		.st0{fill:none;stroke:#333;stroke-width:1;stroke-linecap:round;}
	</style>
	<rect x="0.5" y="0.5" class="st0" width="16" height="16"/>
</svg>

<svg id="tool-gradient-map" viewBox="0 0 17 17">
	<style type="text/css">
		.st0{fill:none;stroke:#333;stroke-width:1;stroke-linecap:round;}
	</style>
	<rect x="0.5" y="0.5" class="st0" width="16" height="16"/>
</svg>

<svg id="tool-selective-color" viewBox="0 0 17 17">
	<style type="text/css">
		.st0{fill:none;stroke:#333;stroke-width:1;stroke-linecap:round;}
	</style>
	<rect x="0.5" y="0.5" class="st0" width="16" height="16"/>
</svg>

<svg id="tool-replace-color" viewBox="0 0 17 17">
	<style type="text/css">
		.st0{fill:none;stroke:#333;stroke-width:1;stroke-linecap:round;}
	</style>
	<rect x="0.5" y="0.5" class="st0" width="16" height="16"/>
</svg>

<svg id="tool-info" viewBox="0 0 17 17">
	<style type="text/css">
		.st0{fill:none;stroke:#333;stroke-width:1;stroke-linecap:round;}
	</style>
	<rect x="0.5" y="0.5" class="st0" width="16" height="16"/>
</svg>

<svg id="tool-historgram" viewBox="0 0 17 17">
	<style type="text/css">
		.st0{fill:none;stroke:#333;stroke-width:1;stroke-linecap:round;}
	</style>
	<rect x="0.5" y="0.5" class="st0" width="16" height="16"/>
</svg>

<svg id="tool-properties" viewBox="0 0 17 17">
	<style type="text/css">
		.st0{fill:none;stroke:#333;stroke-width:1;stroke-linecap:round;}
	</style>
	<rect x="0.5" y="0.5" class="st0" width="16" height="16"/>
</svg>

<svg id="tool-actions" viewBox="0 0 17 17">
	<style type="text/css">
		.st0{fill:none;stroke:#333;stroke-width:1;stroke-linecap:round;}
	</style>
	<rect x="0.5" y="0.5" class="st0" width="16" height="16"/>
</svg>

<svg id="tool-navigator" viewBox="0 0 17 17">
	<style type="text/css">
		.st0{fill:none;stroke:#333;stroke-width:1;stroke-linecap:round;}
	</style>
	<rect x="0.5" y="0.5" class="st0" width="16" height="16"/>
</svg>

<svg id="tool-brush-tips" viewBox="0 0 17 17">
	<style type="text/css">
		.st0{fill:none;stroke:#333;stroke-width:1;stroke-linecap:round;}
	</style>
	<rect x="0.5" y="0.5" class="st0" width="16" height="16"/>
</svg>

<svg id="tool-layer-comps" viewBox="0 0 17 17">
	<style type="text/css">
		.st0{fill:none;stroke:#333;stroke-width:1;stroke-linecap:round;}
	</style>
	<rect x="0.5" y="0.5" class="st0" width="16" height="16"/>
</svg>

<svg id="tool-character" viewBox="0 0 17 17">
	<style type="text/css">
		.st0{fill:none;stroke:#333;stroke-width:1;stroke-linecap:round;}
	</style>
	<rect x="0.5" y="0.5" class="st0" width="16" height="16"/>
</svg>

<svg id="tool-paragraph" viewBox="0 0 17 17">
	<style type="text/css">
		.st0{fill:none;stroke:#333;stroke-width:1;stroke-linecap:round;}
	</style>
	<rect x="0.5" y="0.5" class="st0" width="16" height="16"/>
</svg>

<svg id="tool-tool-presets" viewBox="0 0 17 17">
	<style type="text/css">
		.st0{fill:none;stroke:#333;stroke-width:1;stroke-linecap:round;}
	</style>
	<rect x="0.5" y="0.5" class="st0" width="16" height="16"/>
</svg>

<svg id="tool-glyphs" viewBox="0 0 17 17">
	<style type="text/css">
		.st0{fill:none;stroke:#333;stroke-width:1;stroke-linecap:round;}
	</style>
	<rect x="0.5" y="0.5" class="st0" width="16" height="16"/>
</svg>

<svg id="tool-notes" viewBox="0 0 17 17">
	<style type="text/css">
		.st0{fill:none;stroke:#333;stroke-width:1;stroke-linecap:round;}
	</style>
	<rect x="0.5" y="0.5" class="st0" width="16" height="16"/>
</svg>

<svg id="tool-css" viewBox="0 0 17 17">
	<style type="text/css">
		.st0{fill:none;stroke:#333;stroke-width:1;stroke-linecap:round;}
	</style>
	<rect x="0.5" y="0.5" class="st0" width="16" height="16"/>
</svg>

<svg id="tool-guide-guy" viewBox="0 0 17 17">
	<style type="text/css">
		.st0{fill:none;stroke:#333;stroke-width:1;stroke-linecap:round;}
	</style>
	<rect x="0.5" y="0.5" class="st0" width="16" height="16"/>
</svg>

<svg id="tool-memory" viewBox="0 0 17 17">
	<style type="text/css">
		.st0{fill:none;stroke:#333;stroke-width:1;stroke-linecap:round;}
	</style>
	<rect x="0.5" y="0.5" class="st0" width="16" height="16"/>
</svg>

<svg id="tool-gallery" viewBox="0 0 17 17">
	<style type="text/css">
		.st0{fill:none;stroke:#333;stroke-width:1;stroke-linecap:round;}
	</style>
	<rect x="0.5" y="0.5" class="st0" width="16" height="16"/>
</svg>
