
<svg id="tool-brightness-contrast" viewBox="0 0 17 17">
	<style type="text/css">
		.st0{fill:none;stroke:#333;stroke-miterlimit:10;}
		.st1{fill:#333;}
	</style>
	<circle class="st0" cx="8.5" cy="8.5" r="5"/>
	<path class="st1" d="M8.5,13.5c2.8,0,5-2.2,5-5s-2.2-5-5-5V13.5z"/>
	<line class="st0" x1="8.5" y1="2.5" x2="8.5" y2="0.6"/>
	<line class="st0" x1="8.5" y1="16.4" x2="8.5" y2="14.5"/>
	<line class="st0" x1="14.5" y1="8.5" x2="16.4" y2="8.5"/>
	<line class="st0" x1="0.6" y1="8.5" x2="2.5" y2="8.5"/>
	<line class="st0" x1="12.7" y1="4.3" x2="14.1" y2="2.9"/>
	<line class="st0" x1="2.9" y1="14.1" x2="4.3" y2="12.7"/>
	<line class="st0" x1="12.7" y1="12.7" x2="14.1" y2="14.1"/>
	<line class="st0" x1="2.9" y1="2.9" x2="4.3" y2="4.3"/>
</svg>

<svg id="tool-levels" viewBox="0 0 17 17">
	<style type="text/css">
		.st0{fill:#333;}
	</style>
	<path class="st0" d="M14.6,9.4C14.5,5.8,13.1,6.1,13,7c-0.1,0.9,0.3,3-1.2,2.6c-1.4-0.4-0.2-7.5-1.4-7.8C9.1,1.6,9.8,9,9.1,8.8
		c-0.7-0.2,0.3-4-0.7-3.9c-1,0.1-0.8,5.7-1.2,5.1c-0.3-0.6,0-1.1-0.6-1.2c-0.4,0.4,0.2,2.2-0.6,1.5C5.6,9.8,6.8,2.4,5.4,3
		C4.3,3.5,5,10,4.2,10C3.4,9.9,4.2,5.1,3.4,5.2S3.1,9.5,2.5,9.5C1.9,9.5,2,6.3,2,5.1s-1-0.6-1,0S1,11,1,11v4h14.9c0,0,0-5.6,0-6.5
		C15.8,9.2,14.7,11.9,14.6,9.4z"/>
</svg>

<svg id="tool-curves" viewBox="0 0 17 17">
	<style type="text/css">
		.st0{fill:none;stroke:#333;stroke-miterlimit:10;}
		.st1{opacity:0.35;fill:none;stroke:#333;stroke-miterlimit:10;}
	</style>
	<rect x="1.5" y="1.6" class="st0" width="13.9" height="13.9"/>
	<line class="st1" x1="8.5" y1="1.5" x2="8.5" y2="15.4"/>
	<line class="st1" x1="15.4" y1="8.6" x2="1.5" y2="8.6"/>
	<path class="st0" d=" "/>
</svg>

<svg id="tool-exposure" viewBox="0 0 17 17">
	<style type="text/css">
		.st0{fill:none;stroke:#333;stroke-miterlimit:10;}
		.st1{fill:#3339;}
		.st2{fill:none;stroke:#fff;stroke-miterlimit:10;}
	</style>
	<rect x="1.5" y="1.6" class="st0" width="13.9" height="13.9"/>
	<polygon class="st1" points="1.5,15.5 15.4,15.5 15.4,1.6 "/>
	<line class="st0" x1="5.4" y1="3.6" x2="5.4" y2="7.6"/>
	<line class="st0" x1="7.4" y1="5.6" x2="3.4" y2="5.6"/>
	<line class="st2" x1="13.4" y1="11.5" x2="9.4" y2="11.5"/>
</svg>

<svg id="tool-vibrance" viewBox="0 0 17 17">
	<style type="text/css">
		.st0{fill:#3335;stroke:#333;stroke-miterlimit:10;}
	</style>
	<polygon class="st0" points="1.5,2.6 15.4,2.6 8.4,15 "/>
</svg>

<svg id="tool-hue-saturation" viewBox="0 0 17 17">
	<style type="text/css">
		.st0{fill:url(#SVGID_1_);opacity:.5}
		.st1{fill:none;stroke:#333;stroke-miterlimit:10;}
		.st2{fill:#333;opacity:0.8;}
		.st3{fill:#333;opacity:0.6;}
		.st4{fill:#333;opacity:0.4;}
		.st5{fill:#333;opacity:0.2;}
	</style>
	<linearGradient id="SVGID_1_" gradientUnits="userSpaceOnUse" x1="15.4" y1="11.5307" x2="1.5" y2="11.5307">
		<stop  offset="0" style="stop-color:#3338"/>
		<stop  offset="1" style="stop-color:#ddd7"/>
	</linearGradient>
	<rect x="0.5" y="1.6" class="st2" width="3.9" height="5.9"/>
	<rect x="4.5" y="1.6" class="st3" width="3.9" height="5.9"/>
	<rect x="8.5" y="1.6" class="st4" width="3.9" height="5.9"/>
	<rect x="12.6" y="1.6" class="st5" width="3.9" height="5.9"/>
	<rect x="0.5" y="7.5" class="st0" width="16" height="8"/>
	<rect x="0.5" y="1.6" class="st1" width="16" height="14"/>
	<line class="st1" x1="0.5" y1="7.5" x2="16.4" y2="7.5"/>
	<line class="st1" x1="8.4" y1="1.6" x2="8.4" y2="7.5"/>
	<line class="st1" x1="4.4" y1="1.6" x2="4.4" y2="7.5"/>
	<line class="st1" x1="12.3" y1="1.6" x2="12.3" y2="7.5"/>
</svg>

<svg id="tool-color-balance" viewBox="0 0 17 17">
	<style type="text/css">
		.st0{fill:#333;}
	</style>
	<path class="st0" d="M17,12C17,12,17,11.9,17,12c0-0.1,0-0.1,0-0.2c0,0,0,0,0-0.1l-2.6-8.3c-0.1-0.2-0.3-0.3-0.5-0.3v0h-3
		C10.6,2,9.7,1.2,8.5,1.2S6.3,2,6.1,3.1h-3v0c-0.2,0-0.4,0.1-0.5,0.3L0,11.8c0,0,0,0,0,0.1c0,0,0,0.1,0,0.1c0,0,0,0,0,0.1
		c0,0,0,0,0,0c0,1.7,1.4,3,3.1,3s3.1-1.4,3.1-3c0,0,0,0,0,0c0,0,0,0,0-0.1c0,0,0-0.1,0-0.1c0,0,0,0,0-0.1L3.8,4.1h2.3
		c0.2,1.1,1.2,1.9,2.4,1.9s2.2-0.8,2.4-1.9h2.3l-2.4,7.6c0,0,0,0,0,0.1c0,0,0,0.1,0,0.1c0,0,0,0,0,0.1c0,0,0,0,0,0c0,1.7,1.4,3,3.1,3
		S16.9,13.7,17,12C17,12,17,12,17,12z M1.2,11.4l1.9-6.1l1.9,6.1H1.2z M8.5,5.1c-0.8,0-1.4-0.6-1.4-1.4c0-0.8,0.6-1.4,1.4-1.4
		c0.8,0,1.4,0.6,1.4,1.4C9.9,4.4,9.3,5.1,8.5,5.1z M13.9,5.3l1.9,6.1h-3.9L13.9,5.3z"/>
</svg>

<svg id="tool-black-white" viewBox="0 0 17 17">
	<style type="text/css">
		.st0{fill:#3339;stroke:#333;stroke-miterlimit:10;}
		.st1{fill:none;stroke:#333;stroke-miterlimit:10;}
	</style>
	<rect x="8.5" y="1.5" class="st0" width="7" height="14"/>
	<rect x="1.5" y="1.5" class="st1" width="14" height="14"/>
</svg>

<svg id="tool-photo-filter" viewBox="0 0 17 17">
	<style type="text/css">
		.st0{fill:#333;}
		.st1{fill:#3333;stroke:#333;stroke-linejoin:round;stroke-miterlimit:10;}
	</style>
	<circle class="st0" cx="14.5" cy="13.8" r="1.5"/>
	<path class="st1" d="M14.2,4.6h-2.5c-0.2,0-0.4-0.1-0.5-0.3l-0.7-1.5c-0.1-0.2-0.3-0.3-0.5-0.3H6.7c-0.2,0-0.4,0.1-0.5,0.3L5.6,4.3
		C5.5,4.5,5.3,4.6,5.1,4.6H2.7C2,4.6,1.5,5.1,1.5,5.8v7.5c0,0.7,0.5,1.2,1.2,1.2h9.1c-0.1-0.3-0.2-0.6-0.2-1c0-1.5,1.2-2.7,2.7-2.7
		c0.4,0,0.7,0.1,1,0.2V5.8C15.4,5.1,14.9,4.6,14.2,4.6z M8.5,12.1C7,12.1,5.9,11,5.9,9.5C5.9,8.1,7,7,8.5,7S11,8.1,11,9.5
		C11,11,9.9,12.1,8.5,12.1z"/>
</svg>

<svg id="tool-channel-mixer" viewBox="0 0 17 17">
	<style type="text/css">
		.st0{opacity:0.6;fill:#333;}
		.st1{opacity:0.8;fill:#333;}
		.st2{opacity:0.3;fill:#333;}
	</style>
	<circle class="st0" cx="11.5" cy="11.5" r="4.25"/>
	<circle class="st1" cx="5.5" cy="11.5" r="4.25"/>
	<circle class="st2" cx="8.5" cy="5.5" r="4.25"/>
</svg>

<svg id="tool-color-lookup" viewBox="0 0 17 17">
	<style type="text/css">
		.st0{opacity:0.9;fill:#333;}
		.st1{opacity:0.8;fill:#333;}
		.st2{opacity:0.7;fill:#333;}
		.st3{opacity:0.6;fill:#333;}
		.st4{opacity:0.5;fill:#333;}
		.st5{opacity:0.4;fill:#333;}
		.st6{opacity:0.3;fill:#333;}
		.st7{opacity:0.2;fill:#333;}
		.st8{fill:none;stroke:#333;stroke-miterlimit:10;}
	</style>
	<rect x="0.5" y="2.7" class="st0" width="3.9" height="5.9"/>
	<rect x="4.4" y="2.7" class="st1" width="3.9" height="5.9"/>
	<rect x="8.4" y="2.7" class="st2" width="3.9" height="5.9"/>
	<rect x="12.3" y="2.7" class="st3" width="3.9" height="5.9"/>
	<rect x="0.5" y="8.6" class="st4" width="3.9" height="5.9"/>
	<rect x="4.4" y="8.6" class="st5" width="3.9" height="5.9"/>
	<rect x="8.4" y="8.6" class="st6" width="3.9" height="5.9"/>
	<rect x="12.3" y="8.6" class="st7" width="3.9" height="5.9"/>
	<rect x="0.5" y="2.6" class="st8" width="15.9" height="11.9"/>
	<line class="st8" x1="0.5" y1="8.6" x2="16.4" y2="8.6"/>
	<line class="st8" x1="8.4" y1="2.6" x2="8.4" y2="14.5"/>
	<line class="st8" x1="4.4" y1="2.6" x2="4.4" y2="14.5"/>
	<line class="st8" x1="12.4" y1="2.6" x2="12.4" y2="14.5"/>
</svg>

<svg id="tool-invert" viewBox="0 0 17 17">
	<style type="text/css">
		.st0{fill:none;stroke:#333;stroke-miterlimit:10;}
		.st1{fill:#333;}
	</style>
	<rect x="1.5" y="1.5" class="st0" width="14" height="14"/>
	<path class="st1" d="M11.6,5.4c0.8,0.8,1.3,1.9,1.3,3.2c0,2.5-2,4.5-4.5,4.5c-1.2,0-2.4-0.5-3.2-1.3l-3.8,3.8h13.9V1.6L11.6,5.4z"/>
	<path class="st1" d="M11.6,5.4c-0.8-0.8-1.9-1.3-3.2-1.3C6,4.1,4,6.1,4,8.5c0,1.2,0.5,2.4,1.3,3.2L11.6,5.4z"/>
</svg>

<svg id="tool-posterize" viewBox="0 0 17 17">
	<style type="text/css">
		.st0{fill:#3335;}
		.st1{fill:#333c;}
		.st2{fill:none;stroke:#333;stroke-miterlimit:10;}
	</style>
	<polygon class="st0" points="15.4,10.5 15.4,1.6 9.1,1.6 1.5,7.7 1.5,15.5 8.9,15.5 "/>
	<polygon class="st1" points="15.4,1.6 14.3,1.6 1.5,10.6 1.5,15.5 4.7,15.5 15.4,6.6 "/>
	<rect x="1.5" y="1.6" class="st2" width="13.9" height="13.9"/>
</svg>

<svg id="tool-threshold" viewBox="0 0 17 17">
	<style type="text/css">
		.st0{fill:#333b;}
		.st1{fill:none;stroke:#333;stroke-miterlimit:10;}
	</style>
	<polygon class="st0" points="3,12 3,10.1 4.9,10.1 4.9,8.1 8.9,8.1 8.9,7.1 11.9,7.1 11.9,4.1 12.9,4.1 12.9,3.1 15.4,3.1 15.4,1.6 
		1.5,1.6 1.5,12 "/>
	<polygon class="st0" points="13.9,6.1 13.9,9 12.9,9.1 12.9,10.1 11.9,10.1 11.9,12 6.9,12 6.9,13 6,13 6,15.5 15.4,15.5 15.4,6.1 
		"/>
	<rect x="1.5" y="1.5" class="st1" width="14" height="14"/>
</svg>

<svg id="tool-gradient-map" viewBox="0 0 17 17">
	<style type="text/css">
		.st0{fill:url(#SVGID_1_);}
		.st1{fill:none;stroke:#333;stroke-miterlimit:10;}
	</style>
	<linearGradient id="SVGID_1_" gradientUnits="userSpaceOnUse" x1="1.5" y1="8.55" x2="15.4" y2="8.55">
		<stop  offset="0" style="stop-color:#ddd8"/>
		<stop  offset="1" style="stop-color:#3338"/>
	</linearGradient>
	<rect x="1.5" y="1.5" class="st0" width="14" height="14"/>
	<rect x="1.5" y="1.5" class="st1" width="14" height="14"/>
</svg>

<svg id="tool-selective-color" viewBox="0 0 17 17">
	<style type="text/css">
		.st0{opacity:0.5;fill:#333;}
		.st1{opacity:0.4;fill:#333;}
		.st2{opacity:0.6;fill:#333;}
		.st3{opacity:0.8;fill:#333;}
		.st4{fill:none;stroke:#333;stroke-miterlimit:10;}
	</style>
	<polygon class="st0" points="1.5,15.5 8.5,8.5 1.5,1.6 "/>
	<polygon class="st1" points="1.5,15.5 8.5,8.5 15.4,15.5 "/>
	<polygon class="st2" points="15.4,15.5 8.5,8.5 15.4,1.6 "/>
	<polygon class="st3" points="15.4,1.6 8.5,8.5 1.5,1.6 "/>
	<rect x="1.5" y="1.5" class="st4" width="14" height="14"/>
</svg>

<svg id="tool-replace-color" viewBox="0 0 17 17">
	<style type="text/css">
		.st0{fill:url(#SVGID_1_);stroke:#333;stroke-linejoin:round;stroke-miterlimit:10;}
		.st1{fill:#333;}
	</style>
	<linearGradient id="SVGID_1_" gradientUnits="userSpaceOnUse" x1="0.6645" y1="5.5932" x2="16.3355" y2="5.5932">
		<stop  offset="0" style="stop-color:#fff8"/>
		<stop  offset="1" style="stop-color:#0008"/>
	</linearGradient>
	<path class="st0" d="M16.3,7.6c-1-3.4-4.1-5.3-7.8-5.3S1.6,4.2,0.7,7.6l2.6,1.3C3.9,6.6,6,5.5,8.5,5.5s4.6,1,5.3,3.3L16.3,7.6z"/>
	<path class="st1" d="M9.3,12.7L9.3,12.7L4.9,8l2.3,6l0,0c0,0.1,0.1,0.2,0.1,0.3c0.4,0.6,1.2,0.8,1.8,0.4s0.8-1.2,0.4-1.8
	C9.5,12.8,9.4,12.8,9.3,12.7z"/>
</svg>

<svg id="tool-info" viewBox="0 0 17 17">
	<style type="text/css">
		.st0{fill:none;stroke:#333;stroke-width:1.25;stroke-miterlimit:10;}
		.st1{fill:#333;}
	</style>
	<circle class="st0" cx="8.5" cy="8.5" r="7"/>
	<path class="st1" d="M6.4,8.1V7.8c1.1-0.1,2-0.3,2.7-0.5l0.2,0.1c0,0.8-0.1,1.5-0.1,1.9v1.1c0,1,0,1.3,0.1,1.4c0,0.2,0,0.3,0.1,0.4
		c0,0,0.1,0.1,0.1,0.1s0.1,0,0.2,0.1c0,0,0.3,0,0.9,0V13c-0.8,0-1.5,0-2,0c-0.4,0-1.2,0-2.2,0v-0.6l0.8,0c0.1,0,0.2,0,0.3,0
		s0.1-0.1,0.1-0.1c0.1-0.1,0.1-0.2,0.1-0.4c0-0.1,0-0.4,0.1-1.5V9.4c0-0.6,0-0.9-0.1-1.1c0-0.1-0.1-0.1-0.2-0.1S7,8.1,6.4,8.1z"/>
	<circle class="st1" cx="8.5" cy="5.3" r="1.0"/>
</svg>

<svg id="tool-historgram" viewBox="0 0 17 17">
	<style type="text/css">
		.st0{fill:#333;}
	</style>
	<rect x="1" y="3.1" class="st0" width="1" height="11.9"/>
	<rect x="3" y="1.1" class="st0" width="1" height="13.9"/>
	<rect x="5" y="6.1" class="st0" width="1" height="8.9"/>
	<rect x="6.9" y="9.1" class="st0" width="1" height="6"/>
	<rect x="8.9" y="4.1" class="st0" width="1" height="10.9"/>
	<rect x="10.9" y="3.1" class="st0" width="1" height="11.9"/>
	<rect x="12.9" y="7.1" class="st0" width="1" height="7.9"/>
	<rect x="14.9" y="2.1" class="st0" width="1" height="12.9"/>
</svg>

<svg id="tool-properties" viewBox="0 0 17 17">
	<style type="text/css">
		.st0{fill:#333;}
	</style>
	<path class="st0" d="M15.9,7.1h-3V6.9c0-0.5-0.4-0.9-0.9-0.9H9.8c-0.5,0-0.9,0.4-0.9,0.9v0.1H1v2h7.9v0.1c0,0.5,0.4,0.9,0.9,0.9H12
		c0.5,0,0.9-0.4,0.9-0.9V9.1h3V7.1z M12,8.8c0,0.2-0.2,0.4-0.4,0.4h-1.5C10,9.2,9.8,9,9.8,8.8V7.3C9.8,7.1,10,7,10.2,7h1.5
		C11.9,7,12,7.1,12,7.3V8.8z"/>
	<path class="st0" d="M15.9,2.1h-7V2c0-0.5-0.4-0.9-0.9-0.9H5.8C5.3,1.1,4.9,1.5,4.9,2v0.1H1v2h3.9v0.1c0,0.5,0.4,0.9,0.9,0.9H8
		c0.5,0,0.9-0.4,0.9-0.9V4.1h7V2.1z M8,3.9c0,0.2-0.2,0.4-0.4,0.4H6.2C6,4.2,5.8,4.1,5.8,3.9V2.4C5.8,2.2,6,2,6.2,2h1.5
		C7.9,2,8,2.2,8,2.4V3.9z"/>
	<path class="st0" d="M15.9,12h-10v-0.1C5.9,11.4,5.5,11,5,11H2.8c-0.5,0-0.9,0.4-0.9,0.9V12H1v2h0.9v0.1c0,0.5,0.4,0.9,0.9,0.9H5
		c0.5,0,0.9-0.4,0.9-0.9V14h10V12z M5,13.8c0,0.2-0.2,0.4-0.4,0.4H3.2c-0.2,0-0.4-0.2-0.4-0.4v-1.5c0-0.2,0.2-0.4,0.4-0.4h1.5
		c0.2,0,0.4,0.2,0.4,0.4V13.8z"/>
</svg>

<svg id="tool-actions" viewBox="0 0 17 17">
	<style type="text/css">
		.st0{fill:#333;}
	</style>
	<path class="st0" d="M3,14.1V3c0-0.4,0.4-0.6,0.8-0.4l9.4,5.6c0.3,0.2,0.3,0.7,0,0.9l-9.4,5.6C3.4,14.8,3,14.5,3,14.1z"/>
</svg>

<svg id="tool-navigator" viewBox="0 0 17 17">
	<style type="text/css">
		.st0{fill:none;stroke:#333;.stroke-width:1.25;stroke-miterlimit:10;}
		.st1{opacity:0.9;fill:#333;}
		.st2{opacity:0.6;fill:#333;}
	</style>
	<circle class="st0" cx="8.5" cy="8.5" r="7"/>
	<polygon class="st1" points="5.7,3.2 6.7,9.4 10.2,7.6 "/>
	<polygon class="st2" points="11.1,13.8 10.2,7.6 6.7,9.4 "/>
</svg>

<svg id="tool-brush-tips" viewBox="0 0 17 17">
	<style type="text/css">
		.st0{fill:#333;}
	</style>
	<path class="st0" d="M14.5,4.6c-0.7,0.9-2.6,3.2-4.1,5.1l-1.9-2c1.7-1.6,3.9-3.5,4.7-4.2c1.4-1.2,2.6-2,2.9-1.7
		C16.1,2,15.7,3.1,14.5,4.6L14.5,4.6z M10,10.1c-0.6,0.7-1.1,1.3-1.4,1.7L6.3,9.6C6.7,9.2,7.3,8.7,8,8L10,10.1z M8.2,12.2L8.2,12.2
		C6.9,17.3,1,14.4,1,14.4s2.5,0.3,2.5-2c0-2.2,2.3-2.4,2.4-2.5L8.2,12.2L8.2,12.2L8.2,12.2z"/>
	<path class="st0" d="M7.9,3.1H6.5V3c0-0.2-0.2-0.4-0.4-0.4h-1C4.9,2.6,4.7,2.8,4.7,3v0H1v1h3.7v0c0,0.2,0.2,0.4,0.4,0.4h1
		c0.2,0,0.4-0.2,0.4-0.4l0,0h1.4V3.1z M6.1,3.9C6.1,4,6,4.1,5.9,4.1H5.2c0,0-0.1-0.1-0.1-0.2V3.2c0-0.1,0.1-0.1,0.2-0.1H6
		c0.1,0,0.1,0,0.1,0.1V3.9z"/>
	<path class="st0" d="M7.9,1.2H4.7v0c0-0.2-0.2-0.4-0.4-0.4h-1C3,0.7,2.8,0.9,2.8,1.1v0H1v0.9h1.8v0c0,0.2,0.2,0.4,0.4,0.4h1
		c0.2,0,0.4-0.2,0.4-0.4v0h3.3V1.2z M4.3,1.9c0,0.1-0.1,0.2-0.2,0.2H3.4C3.3,2.1,3.2,2,3.2,1.9V1.3c0-0.1,0.1-0.2,0.2-0.2h0.7
		c0.1,0,0.1,0.1,0.1,0.2V1.9z"/>
	<path class="st0" d="M7.9,5.1H3.3v0c0-0.2-0.2-0.4-0.4-0.4h-1C1.6,4.6,1.4,4.8,1.4,5v0H1v1h0.4v0c0,0.2,0.2,0.4,0.4,0.4h1
		c0.2,0,0.4-0.1,0.4-0.4v0h4.6V5.1z M2.9,5.9c0,0.1-0.1,0.2-0.2,0.2H2C1.9,6.1,1.8,6,1.8,5.9V5.2C1.8,5.1,1.9,5,2,5h0.7
		c0.1,0,0.2,0.1,0.2,0.2V5.9L2.9,5.9z"/>
</svg>

<svg id="tool-layer-comps" viewBox="0 0 17 17">
	<style type="text/css">
		.st0{fill:none;stroke:#333;stroke-width:1;stroke-linecap:round;}
	</style>
	<rect x="0.5" y="0.5" class="st0" width="16" height="16"/>
</svg>

<svg id="tool-character" viewBox="0 0 17 17">
	<style type="text/css">
		.st0{fill:none;stroke:#333;stroke-width:1;stroke-linecap:round;}
	</style>
	<rect x="0.5" y="0.5" class="st0" width="16" height="16"/>
</svg>

<svg id="tool-paragraph" viewBox="0 0 17 17">
	<style type="text/css">
		.st0{fill:none;stroke:#333;stroke-width:1;stroke-linecap:round;}
	</style>
	<rect x="0.5" y="0.5" class="st0" width="16" height="16"/>
</svg>

<svg id="tool-tool-presets" viewBox="0 0 17 17">
	<style type="text/css">
		.st0{fill:none;stroke:#333;stroke-width:1;stroke-linecap:round;}
	</style>
	<rect x="0.5" y="0.5" class="st0" width="16" height="16"/>
</svg>

<svg id="tool-glyphs" viewBox="0 0 17 17">
	<style type="text/css">
		.st0{fill:none;stroke:#333;stroke-width:1;stroke-linecap:round;}
	</style>
	<rect x="0.5" y="0.5" class="st0" width="16" height="16"/>
</svg>

<svg id="tool-notes" viewBox="0 0 17 17">
	<style type="text/css">
		.st0{fill:none;stroke:#333;stroke-width:1;stroke-linecap:round;}
	</style>
	<rect x="0.5" y="0.5" class="st0" width="16" height="16"/>
</svg>

<svg id="tool-css" viewBox="0 0 17 17">
	<style type="text/css">
		.st0{fill:none;stroke:#333;stroke-width:1;stroke-linecap:round;}
	</style>
	<rect x="0.5" y="0.5" class="st0" width="16" height="16"/>
</svg>

<svg id="tool-guide-guy" viewBox="0 0 17 17">
	<style type="text/css">
		.st0{fill:none;stroke:#333;stroke-width:1;stroke-linecap:round;}
	</style>
	<rect x="0.5" y="0.5" class="st0" width="16" height="16"/>
</svg>

<svg id="tool-memory" viewBox="0 0 17 17">
	<style type="text/css">
		.st0{fill:none;stroke:#333;stroke-width:1;stroke-linecap:round;}
	</style>
	<rect x="0.5" y="0.5" class="st0" width="16" height="16"/>
</svg>

<svg id="tool-gallery" viewBox="0 0 17 17">
	<style type="text/css">
		.st0{fill:none;stroke:#333;stroke-width:1;stroke-linecap:round;}
	</style>
	<rect x="0.5" y="0.5" class="st0" width="16" height="16"/>
</svg>
