
<svg id="tool-brightness-contrast" viewBox="0 0 17 17">
	<style type="text/css">
		.st0{fill:none;stroke:#333;stroke-miterlimit:10;}
		.st1{fill:#333;}
	</style>
	<circle class="st0" cx="8.5" cy="8.5" r="5"/>
	<path class="st1" d="M8.5,13.5c2.8,0,5-2.2,5-5s-2.2-5-5-5V13.5z"/>
	<line class="st0" x1="8.5" y1="2.5" x2="8.5" y2="0.6"/>
	<line class="st0" x1="8.5" y1="16.4" x2="8.5" y2="14.5"/>
	<line class="st0" x1="14.5" y1="8.5" x2="16.4" y2="8.5"/>
	<line class="st0" x1="0.6" y1="8.5" x2="2.5" y2="8.5"/>
	<line class="st0" x1="12.7" y1="4.3" x2="14.1" y2="2.9"/>
	<line class="st0" x1="2.9" y1="14.1" x2="4.3" y2="12.7"/>
	<line class="st0" x1="12.7" y1="12.7" x2="14.1" y2="14.1"/>
	<line class="st0" x1="2.9" y1="2.9" x2="4.3" y2="4.3"/>
</svg>

<svg id="tool-levels" viewBox="0 0 17 17">
	<style type="text/css">
		.st0{fill:#333;}
	</style>
	<path class="st0" d="M14.6,9.4C14.5,5.8,13.1,6.1,13,7c-0.1,0.9,0.3,3-1.2,2.6c-1.4-0.4-0.2-7.5-1.4-7.8C9.1,1.6,9.8,9,9.1,8.8
		c-0.7-0.2,0.3-4-0.7-3.9c-1,0.1-0.8,5.7-1.2,5.1c-0.3-0.6,0-1.1-0.6-1.2c-0.4,0.4,0.2,2.2-0.6,1.5C5.6,9.8,6.8,2.4,5.4,3
		C4.3,3.5,5,10,4.2,10C3.4,9.9,4.2,5.1,3.4,5.2S3.1,9.5,2.5,9.5C1.9,9.5,2,6.3,2,5.1s-1-0.6-1,0S1,11,1,11v4h14.9c0,0,0-5.6,0-6.5
		C15.8,9.2,14.7,11.9,14.6,9.4z"/>
</svg>

<svg id="tool-curves" viewBox="0 0 17 17">
	<style type="text/css">
		.st0{fill:none;stroke:#333;stroke-miterlimit:10;}
		.st1{opacity:0.35;fill:none;stroke:#333;stroke-miterlimit:10;}
	</style>
	<rect x="1.5" y="1.6" class="st0" width="13.9" height="13.9"/>
	<line class="st1" x1="8.5" y1="1.5" x2="8.5" y2="15.4"/>
	<line class="st1" x1="15.4" y1="8.6" x2="1.5" y2="8.6"/>
	<path class="st0" d=" "/>
</svg>

<svg id="tool-exposure" viewBox="0 0 17 17">
	<style type="text/css">
		.st0{fill:none;stroke:#333;stroke-miterlimit:10;}
		.st1{fill:#3339;}
		.st2{fill:none;stroke:#fff;stroke-miterlimit:10;}
	</style>
	<rect x="1.5" y="1.6" class="st0" width="13.9" height="13.9"/>
	<polygon class="st1" points="1.5,15.5 15.4,15.5 15.4,1.6 "/>
	<line class="st0" x1="5.4" y1="3.6" x2="5.4" y2="7.6"/>
	<line class="st0" x1="7.4" y1="5.6" x2="3.4" y2="5.6"/>
	<line class="st2" x1="13.4" y1="11.5" x2="9.4" y2="11.5"/>
</svg>

<svg id="tool-vibrance" viewBox="0 0 17 17">
	<style type="text/css">
		.st0{fill:#3335;stroke:#333;stroke-miterlimit:10;}
	</style>
	<polygon class="st0" points="1.5,2.6 15.4,2.6 8.4,15 "/>
</svg>

<svg id="tool-hue-saturation" viewBox="0 0 17 17">
	<style type="text/css">
		.st0{fill:url(#SVGID_1_);opacity:.5}
		.st1{fill:none;stroke:#333;stroke-miterlimit:10;}
		.st2{fill:#333;opacity:0.8;}
		.st3{fill:#333;opacity:0.6;}
		.st4{fill:#333;opacity:0.4;}
		.st5{fill:#333;opacity:0.2;}
	</style>
	<linearGradient id="SVGID_1_" gradientUnits="userSpaceOnUse" x1="15.4" y1="11.5307" x2="1.5" y2="11.5307">
		<stop  offset="0" style="stop-color:#3338"/>
		<stop  offset="1" style="stop-color:#ddd7"/>
	</linearGradient>
	<rect x="0.5" y="1.6" class="st2" width="3.9" height="5.9"/>
	<rect x="4.5" y="1.6" class="st3" width="3.9" height="5.9"/>
	<rect x="8.5" y="1.6" class="st4" width="3.9" height="5.9"/>
	<rect x="12.6" y="1.6" class="st5" width="3.9" height="5.9"/>
	<rect x="0.5" y="7.5" class="st0" width="16" height="8"/>
	<rect x="0.5" y="1.6" class="st1" width="16" height="14"/>
	<line class="st1" x1="0.5" y1="7.5" x2="16.4" y2="7.5"/>
	<line class="st1" x1="8.4" y1="1.6" x2="8.4" y2="7.5"/>
	<line class="st1" x1="4.4" y1="1.6" x2="4.4" y2="7.5"/>
	<line class="st1" x1="12.3" y1="1.6" x2="12.3" y2="7.5"/>
</svg>

<svg id="tool-color-balance" viewBox="0 0 17 17">
	<style type="text/css">
		.st0{fill:#333;}
	</style>
	<path class="st0" d="M17,12C17,12,17,11.9,17,12c0-0.1,0-0.1,0-0.2c0,0,0,0,0-0.1l-2.6-8.3c-0.1-0.2-0.3-0.3-0.5-0.3v0h-3
		C10.6,2,9.7,1.2,8.5,1.2S6.3,2,6.1,3.1h-3v0c-0.2,0-0.4,0.1-0.5,0.3L0,11.8c0,0,0,0,0,0.1c0,0,0,0.1,0,0.1c0,0,0,0,0,0.1
		c0,0,0,0,0,0c0,1.7,1.4,3,3.1,3s3.1-1.4,3.1-3c0,0,0,0,0,0c0,0,0,0,0-0.1c0,0,0-0.1,0-0.1c0,0,0,0,0-0.1L3.8,4.1h2.3
		c0.2,1.1,1.2,1.9,2.4,1.9s2.2-0.8,2.4-1.9h2.3l-2.4,7.6c0,0,0,0,0,0.1c0,0,0,0.1,0,0.1c0,0,0,0,0,0.1c0,0,0,0,0,0c0,1.7,1.4,3,3.1,3
		S16.9,13.7,17,12C17,12,17,12,17,12z M1.2,11.4l1.9-6.1l1.9,6.1H1.2z M8.5,5.1c-0.8,0-1.4-0.6-1.4-1.4c0-0.8,0.6-1.4,1.4-1.4
		c0.8,0,1.4,0.6,1.4,1.4C9.9,4.4,9.3,5.1,8.5,5.1z M13.9,5.3l1.9,6.1h-3.9L13.9,5.3z"/>
</svg>

<svg id="tool-black-white" viewBox="0 0 17 17">
	<style type="text/css">
		.st0{fill:#3339;stroke:#333;stroke-miterlimit:10;}
		.st1{fill:none;stroke:#333;stroke-miterlimit:10;}
	</style>
	<rect x="8.5" y="1.5" class="st0" width="7" height="14"/>
	<rect x="1.5" y="1.5" class="st1" width="14" height="14"/>
</svg>

<svg id="tool-photo-filter" viewBox="0 0 17 17">
	<style type="text/css">
		.st0{fill:#333;}
		.st1{fill:#3333;stroke:#333;stroke-linejoin:round;stroke-miterlimit:10;}
	</style>
	<circle class="st0" cx="14.5" cy="13.8" r="1.5"/>
	<path class="st1" d="M14.2,4.6h-2.5c-0.2,0-0.4-0.1-0.5-0.3l-0.7-1.5c-0.1-0.2-0.3-0.3-0.5-0.3H6.7c-0.2,0-0.4,0.1-0.5,0.3L5.6,4.3
		C5.5,4.5,5.3,4.6,5.1,4.6H2.7C2,4.6,1.5,5.1,1.5,5.8v7.5c0,0.7,0.5,1.2,1.2,1.2h9.1c-0.1-0.3-0.2-0.6-0.2-1c0-1.5,1.2-2.7,2.7-2.7
		c0.4,0,0.7,0.1,1,0.2V5.8C15.4,5.1,14.9,4.6,14.2,4.6z M8.5,12.1C7,12.1,5.9,11,5.9,9.5C5.9,8.1,7,7,8.5,7S11,8.1,11,9.5
		C11,11,9.9,12.1,8.5,12.1z"/>
</svg>

<svg id="tool-channel-mixer" viewBox="0 0 17 17">
	<style type="text/css">
		.st0{opacity:0.6;fill:#333;}
		.st1{opacity:0.8;fill:#333;}
		.st2{opacity:0.3;fill:#333;}
	</style>
	<circle class="st0" cx="11.5" cy="11.5" r="4.25"/>
	<circle class="st1" cx="5.5" cy="11.5" r="4.25"/>
	<circle class="st2" cx="8.5" cy="5.5" r="4.25"/>
</svg>

<svg id="tool-color-lookup" viewBox="0 0 17 17">
	<style type="text/css">
		.st0{opacity:0.9;fill:#333;}
		.st1{opacity:0.8;fill:#333;}
		.st2{opacity:0.7;fill:#333;}
		.st3{opacity:0.6;fill:#333;}
		.st4{opacity:0.5;fill:#333;}
		.st5{opacity:0.4;fill:#333;}
		.st6{opacity:0.3;fill:#333;}
		.st7{opacity:0.2;fill:#333;}
		.st8{fill:none;stroke:#333;stroke-miterlimit:10;}
	</style>
	<rect x="0.5" y="2.7" class="st0" width="3.9" height="5.9"/>
	<rect x="4.4" y="2.7" class="st1" width="3.9" height="5.9"/>
	<rect x="8.4" y="2.7" class="st2" width="3.9" height="5.9"/>
	<rect x="12.3" y="2.7" class="st3" width="3.9" height="5.9"/>
	<rect x="0.5" y="8.6" class="st4" width="3.9" height="5.9"/>
	<rect x="4.4" y="8.6" class="st5" width="3.9" height="5.9"/>
	<rect x="8.4" y="8.6" class="st6" width="3.9" height="5.9"/>
	<rect x="12.3" y="8.6" class="st7" width="3.9" height="5.9"/>
	<rect x="0.5" y="2.6" class="st8" width="15.9" height="11.9"/>
	<line class="st8" x1="0.5" y1="8.6" x2="16.4" y2="8.6"/>
	<line class="st8" x1="8.4" y1="2.6" x2="8.4" y2="14.5"/>
	<line class="st8" x1="4.4" y1="2.6" x2="4.4" y2="14.5"/>
	<line class="st8" x1="12.4" y1="2.6" x2="12.4" y2="14.5"/>
</svg>

<svg id="tool-invert" viewBox="0 0 17 17">
	<style type="text/css">
		.st0{fill:none;stroke:#333;stroke-miterlimit:10;}
		.st1{fill:#333;}
	</style>
	<rect x="1.5" y="1.5" class="st0" width="14" height="14"/>
	<path class="st1" d="M11.6,5.4c0.8,0.8,1.3,1.9,1.3,3.2c0,2.5-2,4.5-4.5,4.5c-1.2,0-2.4-0.5-3.2-1.3l-3.8,3.8h13.9V1.6L11.6,5.4z"/>
	<path class="st1" d="M11.6,5.4c-0.8-0.8-1.9-1.3-3.2-1.3C6,4.1,4,6.1,4,8.5c0,1.2,0.5,2.4,1.3,3.2L11.6,5.4z"/>
</svg>

<svg id="tool-posterize" viewBox="0 0 17 17">
	<style type="text/css">
		.st0{fill:#3335;}
		.st1{fill:#333c;}
		.st2{fill:none;stroke:#333;stroke-miterlimit:10;}
	</style>
	<polygon class="st0" points="15.4,10.5 15.4,1.6 9.1,1.6 1.5,7.7 1.5,15.5 8.9,15.5 "/>
	<polygon class="st1" points="15.4,1.6 14.3,1.6 1.5,10.6 1.5,15.5 4.7,15.5 15.4,6.6 "/>
	<rect x="1.5" y="1.6" class="st2" width="13.9" height="13.9"/>
</svg>

<svg id="tool-threshold" viewBox="0 0 17 17">
	<style type="text/css">
		.st0{fill:#333b;}
		.st1{fill:none;stroke:#333;stroke-miterlimit:10;}
	</style>
	<polygon class="st0" points="3,12 3,10.1 4.9,10.1 4.9,8.1 8.9,8.1 8.9,7.1 11.9,7.1 11.9,4.1 12.9,4.1 12.9,3.1 15.4,3.1 15.4,1.6 
		1.5,1.6 1.5,12 "/>
	<polygon class="st0" points="13.9,6.1 13.9,9 12.9,9.1 12.9,10.1 11.9,10.1 11.9,12 6.9,12 6.9,13 6,13 6,15.5 15.4,15.5 15.4,6.1 
		"/>
	<rect x="1.5" y="1.5" class="st1" width="14" height="14"/>
</svg>

<svg id="tool-gradient-map" viewBox="0 0 17 17">
	<style type="text/css">
		.st0{fill:url(#SVGID_1_);}
		.st1{fill:none;stroke:#333;stroke-miterlimit:10;}
	</style>
	<linearGradient id="SVGID_1_" gradientUnits="userSpaceOnUse" x1="1.5" y1="8.55" x2="15.4" y2="8.55">
		<stop  offset="0" style="stop-color:#ddd8"/>
		<stop  offset="1" style="stop-color:#3338"/>
	</linearGradient>
	<rect x="1.5" y="1.5" class="st0" width="14" height="14"/>
	<rect x="1.5" y="1.5" class="st1" width="14" height="14"/>
</svg>

<svg id="tool-selective-color" viewBox="0 0 17 17">
	<style type="text/css">
		.st0{opacity:0.5;fill:#333;}
		.st1{opacity:0.4;fill:#333;}
		.st2{opacity:0.6;fill:#333;}
		.st3{opacity:0.8;fill:#333;}
		.st4{fill:none;stroke:#333;stroke-miterlimit:10;}
	</style>
	<polygon class="st0" points="1.5,15.5 8.5,8.5 1.5,1.6 "/>
	<polygon class="st1" points="1.5,15.5 8.5,8.5 15.4,15.5 "/>
	<polygon class="st2" points="15.4,15.5 8.5,8.5 15.4,1.6 "/>
	<polygon class="st3" points="15.4,1.6 8.5,8.5 1.5,1.6 "/>
	<rect x="1.5" y="1.5" class="st4" width="14" height="14"/>
</svg>

<svg id="tool-replace-color" viewBox="0 0 17 17">
	<style type="text/css">
		.st0{fill:url(#SVGID_1_);stroke:#333;stroke-linejoin:round;stroke-miterlimit:10;}
		.st1{fill:#333;}
	</style>
	<linearGradient id="SVGID_1_" gradientUnits="userSpaceOnUse" x1="0.6645" y1="5.5932" x2="16.3355" y2="5.5932">
		<stop  offset="0" style="stop-color:#fff8"/>
		<stop  offset="1" style="stop-color:#0008"/>
	</linearGradient>
	<path class="st0" d="M16.3,7.6c-1-3.4-4.1-5.3-7.8-5.3S1.6,4.2,0.7,7.6l2.6,1.3C3.9,6.6,6,5.5,8.5,5.5s4.6,1,5.3,3.3L16.3,7.6z"/>
	<path class="st1" d="M9.3,12.7L9.3,12.7L4.9,8l2.3,6l0,0c0,0.1,0.1,0.2,0.1,0.3c0.4,0.6,1.2,0.8,1.8,0.4s0.8-1.2,0.4-1.8
	C9.5,12.8,9.4,12.8,9.3,12.7z"/>
</svg>

<svg id="tool-info" viewBox="0 0 17 17">
	<style type="text/css">
		.st0{fill:none;stroke:#333;stroke-width:1.25;stroke-miterlimit:10;}
		.st1{fill:#333;}
	</style>
	<circle class="st0" cx="8.5" cy="8.5" r="7"/>
	<path class="st1" d="M6.4,8.1V7.8c1.1-0.1,2-0.3,2.7-0.5l0.2,0.1c0,0.8-0.1,1.5-0.1,1.9v1.1c0,1,0,1.3,0.1,1.4c0,0.2,0,0.3,0.1,0.4
		c0,0,0.1,0.1,0.1,0.1s0.1,0,0.2,0.1c0,0,0.3,0,0.9,0V13c-0.8,0-1.5,0-2,0c-0.4,0-1.2,0-2.2,0v-0.6l0.8,0c0.1,0,0.2,0,0.3,0
		s0.1-0.1,0.1-0.1c0.1-0.1,0.1-0.2,0.1-0.4c0-0.1,0-0.4,0.1-1.5V9.4c0-0.6,0-0.9-0.1-1.1c0-0.1-0.1-0.1-0.2-0.1S7,8.1,6.4,8.1z"/>
	<circle class="st1" cx="8.5" cy="5.3" r="1.0"/>
</svg>

<svg id="tool-historgram" viewBox="0 0 17 17">
	<style type="text/css">
		.st0{fill:#333;}
	</style>
	<rect x="1" y="3.1" class="st0" width="1" height="11.9"/>
	<rect x="3" y="1.1" class="st0" width="1" height="13.9"/>
	<rect x="5" y="6.1" class="st0" width="1" height="8.9"/>
	<rect x="6.9" y="9.1" class="st0" width="1" height="6"/>
	<rect x="8.9" y="4.1" class="st0" width="1" height="10.9"/>
	<rect x="10.9" y="3.1" class="st0" width="1" height="11.9"/>
	<rect x="12.9" y="7.1" class="st0" width="1" height="7.9"/>
	<rect x="14.9" y="2.1" class="st0" width="1" height="12.9"/>
</svg>

<svg id="tool-properties" viewBox="0 0 17 17">
	<style type="text/css">
		.st0{fill:#333;}
	</style>
	<path class="st0" d="M15.9,7.1h-3V6.9c0-0.5-0.4-0.9-0.9-0.9H9.8c-0.5,0-0.9,0.4-0.9,0.9v0.1H1v2h7.9v0.1c0,0.5,0.4,0.9,0.9,0.9H12
		c0.5,0,0.9-0.4,0.9-0.9V9.1h3V7.1z M12,8.8c0,0.2-0.2,0.4-0.4,0.4h-1.5C10,9.2,9.8,9,9.8,8.8V7.3C9.8,7.1,10,7,10.2,7h1.5
		C11.9,7,12,7.1,12,7.3V8.8z"/>
	<path class="st0" d="M15.9,2.1h-7V2c0-0.5-0.4-0.9-0.9-0.9H5.8C5.3,1.1,4.9,1.5,4.9,2v0.1H1v2h3.9v0.1c0,0.5,0.4,0.9,0.9,0.9H8
		c0.5,0,0.9-0.4,0.9-0.9V4.1h7V2.1z M8,3.9c0,0.2-0.2,0.4-0.4,0.4H6.2C6,4.2,5.8,4.1,5.8,3.9V2.4C5.8,2.2,6,2,6.2,2h1.5
		C7.9,2,8,2.2,8,2.4V3.9z"/>
	<path class="st0" d="M15.9,12h-10v-0.1C5.9,11.4,5.5,11,5,11H2.8c-0.5,0-0.9,0.4-0.9,0.9V12H1v2h0.9v0.1c0,0.5,0.4,0.9,0.9,0.9H5
		c0.5,0,0.9-0.4,0.9-0.9V14h10V12z M5,13.8c0,0.2-0.2,0.4-0.4,0.4H3.2c-0.2,0-0.4-0.2-0.4-0.4v-1.5c0-0.2,0.2-0.4,0.4-0.4h1.5
		c0.2,0,0.4,0.2,0.4,0.4V13.8z"/>
</svg>

<svg id="tool-actions" viewBox="0 0 17 17">
	<style type="text/css">
		.st0{fill:#333;}
	</style>
	<path class="st0" d="M3,14.1V3c0-0.4,0.4-0.6,0.8-0.4l9.4,5.6c0.3,0.2,0.3,0.7,0,0.9l-9.4,5.6C3.4,14.8,3,14.5,3,14.1z"/>
</svg>

<svg id="tool-navigator" viewBox="0 0 17 17">
	<style type="text/css">
		.st0{fill:none;stroke:#333;stroke-width:1.5;stroke-miterlimit:10;}
		.st1{opacity:0.95;fill:#333;}
		.st2{opacity:0.7;fill:#333;}
	</style>
	<circle class="st0" cx="8.5" cy="8.5" r="7"/>
	<polygon class="st1" points="5.7,3.2 6.7,9.4 10.2,7.6 "/>
	<polygon class="st2" points="11.1,13.8 10.2,7.6 6.7,9.4 "/>
</svg>

<svg id="tool-brush-tips" viewBox="0 0 17 17">
	<style type="text/css">
		.st0{fill:#333;}
	</style>
	<path class="st0" d="M14.5,4.6c-0.7,0.9-2.6,3.2-4.1,5.1l-1.9-2c1.7-1.6,3.9-3.5,4.7-4.2c1.4-1.2,2.6-2,2.9-1.7
		C16.1,2,15.7,3.1,14.5,4.6L14.5,4.6z M10,10.1c-0.6,0.7-1.1,1.3-1.4,1.7L6.3,9.6C6.7,9.2,7.3,8.7,8,8L10,10.1z M8.2,12.2L8.2,12.2
		C6.9,17.3,1,14.4,1,14.4s2.5,0.3,2.5-2c0-2.2,2.3-2.4,2.4-2.5L8.2,12.2L8.2,12.2L8.2,12.2z"/>
	<path class="st0" d="M7.9,3.1H6.5V3c0-0.2-0.2-0.4-0.4-0.4h-1C4.9,2.6,4.7,2.8,4.7,3v0H1v1h3.7v0c0,0.2,0.2,0.4,0.4,0.4h1
		c0.2,0,0.4-0.2,0.4-0.4l0,0h1.4V3.1z M6.1,3.9C6.1,4,6,4.1,5.9,4.1H5.2c0,0-0.1-0.1-0.1-0.2V3.2c0-0.1,0.1-0.1,0.2-0.1H6
		c0.1,0,0.1,0,0.1,0.1V3.9z"/>
	<path class="st0" d="M7.9,1.2H4.7v0c0-0.2-0.2-0.4-0.4-0.4h-1C3,0.7,2.8,0.9,2.8,1.1v0H1v0.9h1.8v0c0,0.2,0.2,0.4,0.4,0.4h1
		c0.2,0,0.4-0.2,0.4-0.4v0h3.3V1.2z M4.3,1.9c0,0.1-0.1,0.2-0.2,0.2H3.4C3.3,2.1,3.2,2,3.2,1.9V1.3c0-0.1,0.1-0.2,0.2-0.2h0.7
		c0.1,0,0.1,0.1,0.1,0.2V1.9z"/>
	<path class="st0" d="M7.9,5.1H3.3v0c0-0.2-0.2-0.4-0.4-0.4h-1C1.6,4.6,1.4,4.8,1.4,5v0H1v1h0.4v0c0,0.2,0.2,0.4,0.4,0.4h1
		c0.2,0,0.4-0.1,0.4-0.4v0h4.6V5.1z M2.9,5.9c0,0.1-0.1,0.2-0.2,0.2H2C1.9,6.1,1.8,6,1.8,5.9V5.2C1.8,5.1,1.9,5,2,5h0.7
		c0.1,0,0.2,0.1,0.2,0.2V5.9L2.9,5.9z"/>
</svg>

<svg id="tool-layer-comps" viewBox="0 0 17 17">
	<style type="text/css">
		.st0{fill:#333;}
	</style>
	<path class="st0" d="M16.4,5.5l-7.9-4l-7.9,4l7.9,4L16.4,5.5z M8.5,2.9l5.3,2.7L8.5,8.2L3.2,5.5L8.5,2.9L8.5,2.9z M14.8,7.7l1.6,0.8l-7.9,4
	l-7.9-4l1.6-0.8l6.3,3.2L14.8,7.7z M14.8,10.7l1.6,0.8l-7.9,4l-7.9-4l1.6-0.8l6.3,3.2L14.8,10.7z"/>
</svg>

<svg id="tool-character" viewBox="0 0 17 17">
	<style type="text/css">
		.st0{fill:#333;}
	</style>
	<path class="st0" d="M13,1.1l0.1,3.5h-0.5c-0.1-0.6-0.2-1-0.3-1.3c-0.2-0.5-0.6-0.7-0.9-0.9C11.1,2.2,10.5,2,9.9,2H8.1v11.3
		c0,0.9,0.1,1.5,0.3,1.7c0.2,0.3,0.7,0.5,1.3,0.5h0.5V16H3.8v-0.5h0.6c0.6,0,1-0.2,1.4-0.6C5.9,14.7,6,14.1,6,13.3V2H4.2
		C3.5,2,3,2,2.7,2.2C2.3,2.3,2,2.6,1.7,3S1.3,3.9,1.3,4.6H0.8L1,1.1H13L13,1.1z"/>
	<path class="st0" d="M15.1,5.1l-0.7,2.5h1.5l-0.2,0.6h-1.4l-1.6,5.5c-0.2,0.6-0.3,1-0.3,1.1c0,0.1,0,0.2,0.1,0.2s0.1,0.1,0.2,0.1
		c0.2,0,0.4-0.1,0.6-0.3c0.1-0.1,0.5-0.5,1-1.1l0.3,0.2c-0.6,0.8-1.1,1.4-1.6,1.8c-0.3,0.2-0.7,0.4-1,0.4c-0.3,0-0.5-0.1-0.7-0.3
		c-0.2-0.2-0.3-0.4-0.3-0.7c0-0.3,0.1-0.8,0.3-1.5l1.5-5.4h-1.4l0.1-0.4c0.7-0.2,1.2-0.5,1.7-0.8s1-1,1.5-1.9H15.1z"/>
</svg>

<svg id="tool-paragraph" viewBox="0 0 17 17">
	<style type="text/css">
		.st0{fill:#333;}
	</style>
	<path class="st0" d="M14.9,2.1H5.3C3.4,2.1,2,3.6,2,5.6c0,1.9,1.6,3.4,3.4,3.4h1.5l0,6h2V4.1h2V15h2V4.1h1L14.9,2.1z"/>
</svg>

<svg id="tool-tool-presets" viewBox="0 0 17 17">
	<style type="text/css">
		.st0{fill:#333;}
	</style>
	<path class="st0" d="M5.1,7l1.1,1.2L8,6.7L6.6,5.4c0.3-0.9,0.2-2-0.4-2.8c-0.8-1-2.1-1.3-3.2-1C2.8,1.8,2.8,2,2.9,2l1.4,1
		c0.1,0.1,0.2,0.2,0.1,0.3L4.2,4.5c0,0.1-0.1,0.2-0.2,0.2L3,5.2c-0.1,0.1-0.3,0.1-0.4,0l-1.3-1C1.2,4.1,1,4.2,1,4.4
		c0,0.8,0.3,1.5,0.8,2.1C2.7,7.4,4.1,7.6,5.1,7L5.1,7z"/>
	<path class="st0" d="M10.7,9.3l-1.8,2l3.6,3.9c0.3,0.4,0.9,0.4,1.3,0l0.8-0.9c0.4-0.4,0.3-1,0-1.3L10.7,9.3z M13.7,14.2
		c-0.2,0.2-0.6,0.2-0.8,0c-0.2-0.2-0.2-0.6,0-0.8c0.2-0.2,0.6-0.2,0.8,0C14,13.6,14,13.9,13.7,14.2z"/>
	<path class="st0" d="M15.9,6.7l-0.6-0.6C15.2,6,15,6,14.9,6.1l-0.1,0.1c-0.1,0.1-0.3,0.1-0.4,0l0,0c-0.1-0.1-0.1-0.1-0.1-0.2l0-0.5
		c0-0.3-0.1-0.5-0.3-0.7L13,3.5c-0.5-0.5-1.1-0.9-1.7-1.2C10.5,2,9.5,1.8,8.4,2.2c-0.2,0.1-0.2,0.4,0,0.5c3.3,0.9,2.3,2.3,2.2,2.5v0
		l0,0l1.6,1.6l0.6-0.1c0.3,0,0.6,0.1,0.8,0.3l0.1,0.1c0.1,0.1,0.1,0.3,0,0.4l-0.1,0.1c-0.1,0.1-0.1,0.3,0,0.4l0.6,0.6
		c0.2,0.2,0.4,0.2,0.5,0l1.3-1.3C16,7.1,16,6.8,15.9,6.7L15.9,6.7z"/>
	<path class="st0" d="M10.1,5.7L2.1,13c-0.4,0.3-0.4,0.9,0,1.3L3,15.2c0.4,0.4,0.9,0.3,1.3,0l7.3-7.9L10.1,5.7z"/>
</svg>

<svg id="tool-glyphs" viewBox="0 0 17 17">
	<style type="text/css">
		.st0{fill:#333;}
	</style>
	<path class="st0" d="M11,11.1H7.4c-0.3,0.8-0.5,1.5-0.8,2.1c-0.3,0.6-0.6,1.1-1,1.5c-0.4,0.4-0.8,0.7-1.2,0.9s-0.9,0.3-1.5,0.3
		c-0.3,0-0.6,0-0.9-0.1c-0.3-0.1-0.5-0.1-0.7-0.2s-0.4-0.2-0.5-0.3S0.6,15,0.6,14.9c0-0.1,0-0.2,0.1-0.3s0.1-0.2,0.1-0.3
		S0.9,14.1,1,14c0.1-0.1,0.2-0.1,0.3-0.1c0.1,0,0.2,0.1,0.3,0.2c0.1,0.1,0.2,0.3,0.3,0.5C2,14.7,2.1,14.9,2.3,15
		c0.2,0.1,0.4,0.2,0.7,0.2c0.3,0,0.6-0.1,0.9-0.2s0.6-0.4,0.8-0.7c0.3-0.3,0.5-0.8,0.8-1.3c0.2-0.5,0.5-1.1,0.7-1.9H4.1v-0.8h2.5
		C6.8,9.6,7,8.9,7.2,8.2c0.2-0.7,0.4-1.4,0.6-2.1s0.3-1.3,0.5-1.8c0.1-0.6,0.3-1.1,0.3-1.5C8.4,2.4,8.3,2.2,8,2.1
		C7.8,2,7.5,1.9,7.2,1.9c-0.3,0-0.7,0.1-1,0.2c-0.4,0.1-0.7,0.2-1,0.4C4.9,2.7,4.6,2.9,4.4,3.2S4.1,3.8,4.1,4.1c0,0.2,0,0.4,0.1,0.5
		c0.1,0.1,0.1,0.2,0.2,0.3C4.5,4.9,4.6,5,4.6,5c0.1,0,0.1,0,0.2,0c0.1,0,0.3,0,0.4-0.1c0.1-0.1,0.2-0.1,0.3-0.2
		c0.1-0.1,0.2-0.1,0.2-0.2s0.2-0.1,0.3-0.1c0.1,0,0.1,0,0.2,0.1c0.1,0,0.2,0.1,0.2,0.2C6.5,4.8,6.5,4.9,6.6,5c0,0.1,0.1,0.3,0.1,0.4
		c0,0.2,0,0.5-0.1,0.6C6.4,6.3,6.3,6.4,6.1,6.6C6,6.7,5.8,6.8,5.6,6.8C5.4,6.9,5.2,6.9,5,6.9c-0.3,0-0.6-0.1-0.8-0.2
		C4,6.7,3.8,6.5,3.6,6.3C3.4,6.1,3.3,5.9,3.2,5.7C3.1,5.4,3.1,5.2,3.1,4.9c0-0.4,0.1-0.8,0.2-1.1s0.3-0.7,0.6-0.9S4.4,2.3,4.7,2
		s0.7-0.4,1.1-0.5C6.2,1.4,6.6,1.2,7,1.2c0.4-0.1,0.8-0.1,1.3-0.1c0.6,0,1.1,0,1.5,0.1c0.4,0.1,0.8,0.2,1,0.4s0.5,0.4,0.7,0.7
		c0.2,0.3,0.3,0.6,0.4,1l2,6.9h2v0.8h-1.8l0.7,2.5c0,0.1,0,0.2,0.1,0.3c0,0.1,0.1,0.2,0.1,0.2s0.1,0.1,0.1,0.1
		c0.1,0,0.1,0.1,0.2,0.1c0.2,0,0.3,0,0.5-0.1s0.3-0.1,0.4-0.2l0.2,0.3c-0.1,0.1-0.3,0.2-0.4,0.3c-0.2,0.1-0.4,0.2-0.6,0.3
		s-0.5,0.2-0.7,0.2c-0.3,0.1-0.6,0.1-0.9,0.1c-0.4,0-0.8-0.1-1-0.2c-0.3-0.1-0.5-0.2-0.6-0.4c-0.1-0.2-0.3-0.3-0.3-0.5
		c-0.1-0.2-0.1-0.3-0.2-0.5L11,11.1z M9.1,4.8c-0.3,1-0.5,2-0.7,2.9c-0.2,0.9-0.5,1.8-0.7,2.6h3.1L9.1,4.8z"/>
</svg>

<svg id="tool-notes" viewBox="0 0 17 17">
	<style type="text/css">
		.st0{fill-rule:evenodd;clip-rule:evenodd;fill:#333;}
	</style>
	<path class="st0" d="M10.2,3L9.6,4C9.5,4.1,9.3,4.2,9.2,4.1C9,4,9,3.8,9,3.6l0.5-0.9C9.3,2.4,9.2,1.9,9.5,1.6
		c0.3-0.5,0.9-0.6,1.3-0.4c0.5,0.3,0.6,0.9,0.4,1.3C11,2.9,10.6,3.1,10.2,3L10.2,3z M13.1,14.3L13,15.8c0,0,0,0.1-0.1,0.1
		c0,0-0.1,0-0.1,0L2.2,15.4c0,0-0.1,0-0.1-0.1s0-0.1,0-0.1L2.5,4.6c0,0,0-0.1,0.1-0.1c0,0,0.1,0,0.1,0l0.4,0l0.5,9.7
		c0,0.4,0.3,0.6,0.7,0.6L13.1,14.3L13.1,14.3z M11.9,2.6l2.7-0.1c0,0,0.1,0,0.1,0c0,0,0.1,0.1,0.1,0.1l0.6,10.7c0,0,0,0.1,0,0.1
		c0,0-0.1,0.1-0.1,0.1L4.4,14.1c0,0-0.1,0-0.1,0c0,0-0.1-0.1-0.1-0.1L3.7,3.2c0,0,0-0.1,0-0.1c0,0,0.1-0.1,0.1-0.1l4.9-0.3
		C8.7,2.9,8.5,3.2,8.5,3.3c0,0.1-0.1,0.1-0.1,0.2c0,0.1,0,0.1,0,0.2c0,0.1,0,0.1,0,0.2c0,0.1,0,0.1,0,0.2c0,0.1,0,0.1,0.1,0.2
		c0,0.1,0.1,0.1,0.1,0.2c0,0,0.1,0.1,0.1,0.1c0,0,0.1,0.1,0.2,0.1C8.9,4.7,9,4.7,9,4.8c0.1,0,0.1,0,0.2,0c0.1,0,0.1,0,0.2,0
		c0.1,0,0.1,0,0.2,0c0.1,0,0.1,0,0.2-0.1c0.1,0,0.1-0.1,0.2-0.1c0.1,0,0.1-0.1,0.1-0.1c0,0,0.1-0.1,0.1-0.2c0.1-0.1,0.3-0.6,0.3-0.6
		c0.5-0.1,1-0.4,1.2-0.8C11.8,2.8,11.8,2.7,11.9,2.6L11.9,2.6z"/>
</svg>

<svg id="tool-css" viewBox="0 0 17 17">
	<style type="text/css">
		.st0{fill:#333;}
	</style>
	<path class="st0" d="M12.5,3.9l-8,0l0.1,1.6l6.2,0l-0.2,1.7H6.6l0.1,1.6h3.8L10.3,11l-1.8,0.5L6.7,11L6.6,9.7H5l0.2,2.4l3.3,1.1
	l3.3-0.9L12.5,3.9L12.5,3.9z M2.1,1.2h12.8l-1.2,13.4L8.5,16l-5.2-1.5L2.1,1.2z"/>
</svg>

<svg id="tool-guide-guy" viewBox="0 0 17 17">
	<style type="text/css">
		.st0{fill:#333;}
		.st1{fill:#3337;}
	</style>
	<path class="st0" d="M16.9,1.1H1V17h5L6,6.1h10.9L16.9,1.1z M4,2.1v2H2v-2H4z M2,16v-1h1v-1H2v-1h1v-1H2v-1h2v-1H2v-1h1v-1H2v-1h1
		v-1H2v-1h2h1L5,16H2z M5,5.1v-1v-2h1v1h1v-1h1v1h1v-1h1v2h1v-2h1v1h1v-1h1v1h1v-1h1l0,3H5z"/>
	<polygon class="st1" points="14.9,13 14.9,15 12.9,15 12.9,16 15.9,16 15.9,15 15.9,13 "/>
	<rect x="14.9" y="10.1" class="st1" width="1" height="2"/>
	<rect x="14.9" y="7.1" class="st1" width="1" height="2"/>
	<rect x="9.9" y="15" class="st1" width="2" height="1"/>
	<rect x="6.9" y="15" class="st1" width="2" height="1"/>
</svg>

<svg id="tool-memory" viewBox="0 0 17 17">
	<style type="text/css">
		.st0{fill:#333;}
	</style>
	<rect x="4" y="4.1" class="st0" width="8.9" height="8.9"/>
	<path class="st0" d="M5.5,1.1C5.2,1.1,5,1.3,5,1.6v1.5h1V1.6C6,1.3,5.7,1.1,5.5,1.1z"/>
	<path class="st0" d="M7.4,1.1c-0.3,0-0.5,0.2-0.5,0.5v1.5h1V1.6C7.9,1.3,7.7,1.1,7.4,1.1z"/>
	<path class="st0" d="M9.4,1.1c-0.3,0-0.5,0.2-0.5,0.5v1.5h1V1.6C9.9,1.3,9.7,1.1,9.4,1.1z"/>
	<path class="st0" d="M11.4,1.1c-0.3,0-0.5,0.2-0.5,0.5v1.5h1V1.6C11.9,1.3,11.7,1.1,11.4,1.1z"/>
	<path class="st0" d="M15.9,5.6c0-0.3-0.2-0.5-0.5-0.5h-1.5v1h1.5C15.7,6.1,15.9,5.9,15.9,5.6z"/>
	<path class="st0" d="M15.9,7.6c0-0.3-0.2-0.5-0.5-0.5h-1.5v1h1.5C15.7,8.1,15.9,7.8,15.9,7.6z"/>
	<path class="st0" d="M15.9,9.6c0-0.3-0.2-0.5-0.5-0.5h-1.5v1h1.5C15.7,10.1,15.9,9.8,15.9,9.6z"/>
	<path class="st0" d="M15.9,11.5c0-0.3-0.2-0.5-0.5-0.5h-1.5v1h1.5C15.7,12,15.9,11.8,15.9,11.5z"/>
	<path class="st0" d="M11.4,16c0.3,0,0.5-0.2,0.5-0.5V14h-1v1.5C10.9,15.8,11.1,16,11.4,16z"/>
	<path class="st0" d="M9.4,16c0.3,0,0.5-0.2,0.5-0.5V14h-1v1.5C8.9,15.8,9.2,16,9.4,16z"/>
	<path class="st0" d="M7.4,16c0.3,0,0.5-0.2,0.5-0.5V14h-1v1.5C6.9,15.8,7.2,16,7.4,16z"/>
	<path class="st0" d="M5.5,16C5.7,16,6,15.8,6,15.5V14H5v1.5C5,15.8,5.2,16,5.5,16z"/>
	<path class="st0" d="M1,11.5C1,11.8,1.2,12,1.5,12H3v-1H1.5C1.2,11,1,11.3,1,11.5z"/>
	<path class="st0" d="M1,9.6c0,0.3,0.2,0.5,0.5,0.5H3v-1H1.5C1.2,9.1,1,9.3,1,9.6z"/>
	<path class="st0" d="M1,7.6c0,0.3,0.2,0.5,0.5,0.5H3v-1H1.5C1.2,7.1,1,7.3,1,7.6z"/>
	<path class="st0" d="M1,5.6c0,0.3,0.2,0.5,0.5,0.5H3v-1H1.5C1.2,5.1,1,5.3,1,5.6z"/>
</svg>

<svg id="tool-gallery" viewBox="0 0 17 17">
	<style type="text/css">
		.st0{fill:#333a;}
		.st1{fill:#333c;}
		.st2{fill:#333;}
	</style>
	<path class="st0" d="M14.7,4.1h-0.8V3.3c0-0.6-0.5-1.2-1.2-1.2H2.1C1.5,2.1,1,2.6,1,3.3v8.6C1,12.5,1.5,13,2.1,13H3v0.8
		C3,14.5,3.5,15,4.1,15h10.6c0.6,0,1.2-0.5,1.2-1.2V5.3C15.9,4.6,15.4,4.1,14.7,4.1z M2.1,12C2.1,12,2,12,2,11.9V3.3
		c0-0.1,0.1-0.2,0.2-0.2h10.6c0.1,0,0.2,0.1,0.2,0.2v0.8H4.1C3.5,4.1,3,4.6,3,5.3V12H2.1z M14.9,13.9c0,0.1-0.1,0.2-0.2,0.2H4.1
		C4,14,4,13.9,4,13.9V5.3C4,5.2,4,5.1,4.1,5.1h10.6c0.1,0,0.2,0.1,0.2,0.2V13.9z"/>
	<path class="st1" d="M13.1,7.1c0,0.6-0.5,1-1.1,1s-1.1-0.5-1.1-1s0.5-1,1.1-1S13.1,6.6,13.1,7.1z"/>
	<path class="st2" d="M13.9,13H5v-1.4l2.6-4.2l3,3.5h0.7l2.6-2.1V13z"/>
</svg>
